<svg width="110" height="71" viewBox="0 0 110 71" fill="none" xmlns="http://www.w3.org/2000/svg">
<path d="M15.9 45.4L17.1 34.25C17.1 33.35 16.8667 32.6 16.4 32C15.9333 31.4 15.15 31.1 14.05 31.1C12.9833 31.1 12.0667 31.5833 11.3 32.55C10.5667 33.4833 10.1 34.6667 9.9 36.1C8.7 45.2333 8.06667 50.2 8 51H1.25L4 27.45C5.4 27.0833 6.46667 26.9 7.2 26.9C9.43333 26.9 10.6 27.7167 10.7 29.35C12.3333 27.75 14.2833 26.95 16.55 26.95C18.85 26.95 20.65 27.5167 21.95 28.65C23.25 29.7833 23.9 31.2167 23.9 32.95C23.9 33.4167 23.8 34.3 23.6 35.6C22.8333 40.6667 22.45 43.6167 22.45 44.45C22.45 45.9833 22.9667 46.75 24 46.75C26.2667 46.75 27.9833 44.3833 29.15 39.65C30.2833 40.85 30.9667 41.8 31.2 42.5C29.4333 48.3667 26.3667 51.3 22 51.3C19.9333 51.3 18.4 50.6667 17.4 49.4C16.4 48.1333 15.9 46.8 15.9 45.4ZM36.8777 39.8C38.9444 39.3667 40.4777 38.5333 41.4777 37.3C42.5111 36.0667 43.0277 34.8833 43.0277 33.75C43.0277 32.5833 42.7111 31.8 42.0777 31.4C41.4777 30.9667 40.8111 30.75 40.0777 30.75C38.5111 30.75 37.1277 31.6333 35.9277 33.4C34.7611 35.1333 34.1777 37.2167 34.1777 39.65C34.1777 42.05 34.7444 43.85 35.8777 45.05C37.0444 46.2167 38.4777 46.8 40.1777 46.8C42.6777 46.8 45.0777 45.9333 47.3777 44.2C49.6777 42.4667 51.5444 40.2 52.9777 37.4C53.7111 38.1 54.3777 38.9667 54.9777 40C53.8777 42.5 51.9277 44.95 49.1277 47.35C47.7277 48.5167 46.0611 49.4667 44.1277 50.2C42.2277 50.9333 40.2611 51.3 38.2277 51.3C34.8944 51.3 32.2611 50.2833 30.3277 48.25C28.2611 46.05 27.2277 43.2333 27.2277 39.8C27.2277 36.3667 28.5111 33.3667 31.0777 30.8C33.6777 28.2333 36.7777 26.95 40.3777 26.95C42.9444 26.95 45.0277 27.5167 46.6277 28.65C48.2277 29.75 49.0444 31.25 49.0777 33.15C49.0777 35.7167 48.0444 37.8 45.9777 39.4C43.9444 41 41.1444 42.1167 37.5777 42.75L36.8777 39.8ZM63.9688 26.95C67.0354 26.95 69.5854 27.9333 71.6188 29.9C73.6854 31.8667 74.7188 34.2667 74.7188 37.1C74.7188 41.4 73.4521 44.85 70.9188 47.45C68.4188 50.0167 65.3854 51.3 61.8188 51.3C58.2521 51.3 55.4188 50.2833 53.3188 48.25C51.2521 46.2167 50.2188 43.7 50.2188 40.7C50.2188 36.5 51.5021 33.1667 54.0688 30.7C56.6688 28.2 59.9688 26.95 63.9688 26.95ZM62.9688 31C61.4021 31 60.0854 31.9 59.0188 33.7C57.9521 35.5 57.3688 37.7667 57.2688 40.5C57.2688 42.4333 57.6521 44.0333 58.4188 45.3C59.2188 46.5667 60.4188 47.2 62.0188 47.2C63.6188 47.2 64.9521 46.3167 66.0188 44.55C67.1188 42.7833 67.6688 40.7667 67.6688 38.5C67.6688 36.2333 67.2854 34.4333 66.5188 33.1C65.7521 31.7 64.5688 31 62.9688 31ZM93.2953 26.25C96.8286 26.25 99.5453 27.4333 101.445 29.8C103.379 32.1667 104.345 34.8667 104.345 37.9C104.345 41.9 103.012 45.0833 100.345 47.45C97.712 49.8167 94.6786 51 91.2453 51C88.8786 51 86.7953 50.6 84.9953 49.8C83.2286 48.9667 81.812 47.9 80.7453 46.6C78.0453 43.3667 76.6953 39.3333 76.6953 34.5C76.6953 33.7667 76.7286 33.0167 76.7953 32.25C77.262 26.15 79.0953 21.4167 82.2953 18.05C85.5286 14.65 89.7453 12.95 94.9453 12.95C98.5786 12.95 101.545 13.9 103.845 15.8L101.545 19.9C99.6453 18.4 97.4453 17.65 94.9453 17.65C92.5786 17.65 90.612 18.4333 89.0453 20C87.512 21.5667 86.3953 23.4667 85.6953 25.7C84.8286 28.6 84.3953 31.65 84.3953 34.85C84.3953 37.0167 84.6786 39.0167 85.2453 40.85C86.3786 44.4833 88.3286 46.3 91.0953 46.3C92.4286 46.3 93.6453 45.6 94.7453 44.2C95.8786 42.7667 96.4786 40.8833 96.5453 38.55C96.5453 38.3167 96.5453 38.0667 96.5453 37.8C96.5453 33.0333 94.312 30.65 89.8453 30.65C89.2786 30.65 88.462 30.7833 87.3953 31.05C86.362 31.3167 85.762 31.55 85.5953 31.75L85.9453 27.95C87.9786 26.8167 90.4286 26.25 93.2953 26.25Z" fill="#0066FF"/>
</svg>
