<svg width="319" height="365" viewBox="0 0 319 365" fill="none" xmlns="http://www.w3.org/2000/svg">
<g clip-path="url(#clip0_4_437)">
<path d="M67.0364 289.836C66.8501 289.836 66.6714 289.762 66.5397 289.63C66.4079 289.498 66.3339 289.32 66.3339 289.133V283.647C66.3339 280.617 65.1297 277.711 62.9863 275.568C60.8428 273.426 57.9356 272.222 54.9043 272.222C51.873 272.222 48.9658 273.426 46.8224 275.568C44.6789 277.711 43.4747 280.617 43.4747 283.647V289.133C43.4747 289.32 43.4006 289.498 43.2688 289.63C43.137 289.762 42.9582 289.836 42.7718 289.836C42.5853 289.836 42.4065 289.762 42.2747 289.63C42.1429 289.498 42.0688 289.32 42.0688 289.133V283.647C42.0592 281.956 42.384 280.28 43.0247 278.714C43.6655 277.149 44.6094 275.726 45.8022 274.527C46.995 273.328 48.4132 272.377 49.9753 271.727C51.5373 271.078 53.2124 270.744 54.9041 270.744C56.5958 270.744 58.2709 271.078 59.8329 271.727C61.395 272.377 62.8132 273.328 64.006 274.527C65.1988 275.726 66.1427 277.149 66.7835 278.714C67.4242 280.28 67.749 281.956 67.7394 283.647V289.133C67.7394 289.32 67.6653 289.498 67.5335 289.63C67.4017 289.762 67.2229 289.836 67.0364 289.836Z" fill="#494945"/>
<path d="M83.6844 284.392H68.8947V364.18H83.6844V284.392Z" fill="#0CBC8B"/>
<path opacity="0.21" d="M83.6844 284.392H68.8947V364.18H83.6844V284.392Z" fill="#0A0A0A"/>
<path d="M68.8947 284.392H11.3302V364.18H68.8947V284.392Z" fill="#0CBC8B"/>
<path d="M52.2454 289.836C52.0591 289.836 51.8804 289.762 51.7486 289.63C51.6169 289.498 51.5429 289.32 51.5429 289.133V283.647C51.552 282.141 51.2631 280.647 50.6928 279.253C50.1225 277.859 49.282 276.592 48.2197 275.523C47.1575 274.455 45.8944 273.607 44.5031 273.029C43.1119 272.45 41.6199 272.153 40.1131 272.153C38.6063 272.153 37.1143 272.45 35.723 273.029C34.3318 273.607 33.0687 274.455 32.0064 275.523C30.9442 276.592 30.1037 277.859 29.5334 279.253C28.9631 280.647 28.6742 282.141 28.6833 283.647V289.133C28.6856 289.227 28.6691 289.32 28.6348 289.407C28.6005 289.495 28.5491 289.574 28.4836 289.641C28.4181 289.708 28.3399 289.762 28.2535 289.798C28.1671 289.834 28.0743 289.853 27.9805 289.853C27.8868 289.853 27.794 289.834 27.7076 289.798C27.6212 289.762 27.5429 289.708 27.4775 289.641C27.412 289.574 27.3606 289.495 27.3263 289.407C27.292 289.32 27.2755 289.227 27.2778 289.133V283.647C27.2681 281.956 27.593 280.28 28.2337 278.714C28.8744 277.149 29.8183 275.726 31.0112 274.527C32.204 273.328 33.6222 272.377 35.1842 271.727C36.7463 271.078 38.4213 270.744 40.1131 270.744C41.8048 270.744 43.4799 271.078 45.0419 271.727C46.604 272.377 48.0222 273.328 49.215 274.527C50.4078 275.726 51.3517 277.149 51.9924 278.714C52.6332 280.28 52.958 281.956 52.9484 283.647V289.133C52.9484 289.32 52.8743 289.498 52.7425 289.63C52.6107 289.762 52.4319 289.836 52.2454 289.836Z" fill="#494945"/>
<path opacity="0.11" d="M68.8947 284.392L76.2896 292.353L83.684 284.392H68.8947Z" fill="#0A0A0A"/>
<path opacity="0.11" d="M68.8947 364.18L76.2896 356.219L83.684 364.18H68.8947Z" fill="#0A0A0A"/>
<path d="M230.629 0H108.138C98.0054 0 89.7909 8.21083 89.7909 18.3394V306.159C89.7909 316.287 98.0054 324.498 108.138 324.498H230.629C240.762 324.498 248.976 316.287 248.976 306.159V18.3394C248.976 8.21083 240.762 0 230.629 0Z" fill="#292A2E"/>
<path d="M230.571 5.72668H108.196C101.238 5.72668 95.5974 11.3648 95.5974 18.3198V305.751C95.5974 312.706 101.238 318.344 108.196 318.344H230.571C237.529 318.344 243.17 312.706 243.17 305.751V18.3198C243.17 11.3648 237.529 5.72668 230.571 5.72668Z" fill="white"/>
<path d="M139.16 3.3591H199.606V9.61098C199.606 11.4038 198.893 13.1231 197.625 14.391C196.357 15.6588 194.637 16.3713 192.844 16.3718H145.924C144.13 16.3718 142.409 15.6595 141.141 14.3916C139.872 13.1237 139.16 11.4041 139.16 9.61098V3.3591Z" fill="#292A2E"/>
<g opacity="0.15">
<path opacity="0.15" d="M229.921 102.243H108.846C107.172 102.241 105.568 101.576 104.384 100.393C103.201 99.21 102.536 97.6064 102.534 95.9337V32.0919C102.536 30.4192 103.201 28.8155 104.384 27.6327C105.568 26.45 107.172 25.7847 108.846 25.7828H229.921C231.594 25.7847 233.199 26.45 234.382 27.6327C235.565 28.8155 236.231 30.4192 236.233 32.0919V95.9337C236.231 97.6064 235.565 99.21 234.382 100.393C233.199 101.576 231.594 102.241 229.921 102.243ZM108.846 26.6178C107.394 26.6196 106.002 27.197 104.975 28.2232C103.949 29.2494 103.372 30.6407 103.37 32.0919V95.9337C103.371 97.3849 103.949 98.7762 104.975 99.8024C106.002 100.829 107.394 101.406 108.846 101.408H229.921C231.373 101.406 232.765 100.829 233.792 99.8027C234.818 98.7765 235.396 97.385 235.397 95.9337V32.0919C235.396 30.6405 234.818 29.2491 233.792 28.2229C232.765 27.1967 231.373 26.6194 229.921 26.6178H108.846Z" fill="#292A2E"/>
</g>
<g opacity="0.43">
<path opacity="0.43" d="M172.234 43.7126C174.4 43.7126 176.156 41.9573 176.156 39.792C176.156 37.6267 174.4 35.8714 172.234 35.8714C170.068 35.8714 168.312 37.6267 168.312 39.792C168.312 41.9573 170.068 43.7126 172.234 43.7126Z" fill="#FFC600"/>
<path opacity="0.43" d="M184.764 43.7126C186.931 43.7126 188.687 41.9573 188.687 39.792C188.687 37.6267 186.931 35.8714 184.764 35.8714C182.598 35.8714 180.842 37.6267 180.842 39.792C180.842 41.9573 182.598 43.7126 184.764 43.7126Z" fill="#FFC600"/>
<path opacity="0.43" d="M197.294 43.7126C199.461 43.7126 201.217 41.9573 201.217 39.792C201.217 37.6267 199.461 35.8714 197.294 35.8714C195.128 35.8714 193.372 37.6267 193.372 39.792C193.372 41.9573 195.128 43.7126 197.294 43.7126Z" fill="#FFC600"/>
<path opacity="0.43" d="M209.825 43.7126C211.991 43.7126 213.747 41.9573 213.747 39.792C213.747 37.6267 211.991 35.8714 209.825 35.8714C207.658 35.8714 205.902 37.6267 205.902 39.792C205.902 41.9573 207.658 43.7126 209.825 43.7126Z" fill="#FFC600"/>
<path opacity="0.43" d="M222.355 43.7126C224.521 43.7126 226.277 41.9573 226.277 39.792C226.277 37.6267 224.521 35.8714 222.355 35.8714C220.189 35.8714 218.432 37.6267 218.432 39.792C218.432 41.9573 220.189 43.7126 222.355 43.7126Z" fill="#FFC600"/>
</g>
<g opacity="0.15">
<path opacity="0.15" d="M226.277 51.9213H169.383V52.7562H226.277V51.9213Z" fill="#292A2E"/>
</g>
<g opacity="0.15">
<path opacity="0.15" d="M226.277 60.271H169.383V61.106H226.277V60.271Z" fill="#292A2E"/>
</g>
<g opacity="0.15">
<path opacity="0.15" d="M199.607 68.6208H169.383V69.4558H199.607V68.6208Z" fill="#292A2E"/>
</g>
<g opacity="0.15">
<path opacity="0.15" d="M226.695 91.3969H207.264V85.2113H226.695V91.3969ZM208.099 90.5619H225.86V86.0463H208.099V90.5619Z" fill="#292A2E"/>
</g>
<path d="M199.481 85.6284H180.886V90.9789H199.481V85.6284Z" fill="#0CBC8B"/>
<path d="M154.507 46.9256C153.605 44.6178 150.605 43.2 145.088 41.4666C144.914 41.4119 144.371 41.2791 143.823 41.1484C143.656 41.1086 143.482 41.1063 143.314 41.1417C143.146 41.1771 142.988 41.2493 142.851 41.3531C142.714 41.457 142.602 41.5898 142.523 41.7421C142.444 41.8944 142.399 42.0624 142.393 42.2339C142.393 42.2339 141.725 45.1421 136.815 45.1421C131.01 45.1421 130.216 42.2339 130.216 42.2339C130.21 42.0624 130.165 41.8944 130.086 41.7421C130.007 41.5898 129.895 41.457 129.758 41.3531C129.621 41.2493 129.463 41.1771 129.295 41.1417C129.127 41.1063 128.954 41.1086 128.787 41.1484C128.238 41.2791 127.695 41.4119 127.521 41.4666C122.004 43.2 119.005 44.6178 118.102 46.9256C114.934 55.0249 110.107 80.4983 110.107 80.4983L117.295 82.3829L123.338 61.0075C124.201 64.2134 124.475 74.0056 124.475 74.0056H131.361H141.248H147.948C147.948 74.0056 148.408 64.2134 149.27 61.0075L155.314 82.3829L162.502 80.4983C162.502 80.4983 157.675 55.0249 154.507 46.9256Z" fill="#FFC600"/>
<path opacity="0.48" d="M154.507 46.9256C153.605 44.6178 150.605 43.2 145.088 41.4666C144.914 41.4119 144.371 41.2791 143.823 41.1484C143.656 41.1086 143.482 41.1063 143.314 41.1417C143.146 41.1771 142.988 41.2493 142.851 41.3531C142.714 41.457 142.602 41.5898 142.523 41.7421C142.444 41.8944 142.399 42.0624 142.393 42.2339C142.393 42.2339 141.725 45.1421 136.815 45.1421C131.01 45.1421 130.216 42.2339 130.216 42.2339C130.21 42.0624 130.165 41.8944 130.086 41.7421C130.007 41.5898 129.895 41.457 129.758 41.3531C129.621 41.2493 129.463 41.1771 129.295 41.1417C129.127 41.1063 128.954 41.1086 128.787 41.1484C128.238 41.2791 127.695 41.4119 127.521 41.4666C122.004 43.2 119.005 44.6178 118.102 46.9256C114.934 55.0249 110.107 80.4983 110.107 80.4983L117.295 82.3829L123.338 61.0075C124.201 64.2134 124.475 74.0056 124.475 74.0056H131.361H141.248H147.948C147.948 74.0056 148.408 64.2134 149.27 61.0075L155.314 82.3829L162.502 80.4983C162.502 80.4983 157.675 55.0249 154.507 46.9256Z" fill="white"/>
<g opacity="0.15">
<path opacity="0.15" d="M229.921 192.141H108.846C107.172 192.139 105.568 191.474 104.385 190.291C103.201 189.109 102.536 187.505 102.534 185.833V121.99C102.536 120.317 103.201 118.714 104.385 117.531C105.568 116.349 107.172 115.684 108.846 115.682H229.921C231.594 115.684 233.198 116.349 234.382 117.531C235.565 118.714 236.231 120.317 236.233 121.99V185.833C236.231 187.505 235.565 189.109 234.382 190.291C233.199 191.474 231.594 192.139 229.921 192.141ZM108.846 116.517C107.394 116.519 106.002 117.096 104.976 118.122C103.949 119.148 103.372 120.539 103.37 121.99V185.833C103.372 187.284 103.949 188.675 104.975 189.701C106.002 190.727 107.394 191.305 108.846 191.306H229.921C231.373 191.305 232.765 190.728 233.792 189.701C234.818 188.675 235.396 187.284 235.397 185.833V121.99C235.396 120.539 234.818 119.147 233.792 118.121C232.765 117.095 231.373 116.518 229.921 116.516L108.846 116.517Z" fill="#292A2E"/>
</g>
<g opacity="0.43">
<path opacity="0.43" d="M172.234 133.612C174.4 133.612 176.156 131.856 176.156 129.691C176.156 127.526 174.4 125.77 172.234 125.77C170.068 125.77 168.312 127.526 168.312 129.691C168.312 131.856 170.068 133.612 172.234 133.612Z" fill="#FFC600"/>
<path opacity="0.43" d="M184.764 133.612C186.931 133.612 188.687 131.856 188.687 129.691C188.687 127.526 186.931 125.77 184.764 125.77C182.598 125.77 180.842 127.526 180.842 129.691C180.842 131.856 182.598 133.612 184.764 133.612Z" fill="#FFC600"/>
<path opacity="0.43" d="M197.294 133.612C199.461 133.612 201.217 131.856 201.217 129.691C201.217 127.526 199.461 125.77 197.294 125.77C195.128 125.77 193.372 127.526 193.372 129.691C193.372 131.856 195.128 133.612 197.294 133.612Z" fill="#FFC600"/>
<path opacity="0.43" d="M209.825 133.612C211.991 133.612 213.747 131.856 213.747 129.691C213.747 127.526 211.991 125.77 209.825 125.77C207.658 125.77 205.902 127.526 205.902 129.691C205.902 131.856 207.658 133.612 209.825 133.612Z" fill="#FFC600"/>
<path opacity="0.43" d="M222.355 133.612C224.521 133.612 226.277 131.856 226.277 129.691C226.277 127.526 224.521 125.77 222.355 125.77C220.189 125.77 218.432 127.526 218.432 129.691C218.432 131.856 220.189 133.612 222.355 133.612Z" fill="#FFC600"/>
</g>
<g opacity="0.15">
<path opacity="0.15" d="M226.277 141.82H169.383V142.655H226.277V141.82Z" fill="#292A2E"/>
</g>
<g opacity="0.15">
<path opacity="0.15" d="M226.277 150.17H169.383V151.005H226.277V150.17Z" fill="#292A2E"/>
</g>
<g opacity="0.15">
<path opacity="0.15" d="M199.607 158.519H169.383V159.354H199.607V158.519Z" fill="#292A2E"/>
</g>
<g opacity="0.15">
<path opacity="0.15" d="M226.695 181.295H207.264V175.11H226.695V181.295ZM208.099 180.46H225.86V175.945H208.099V180.46Z" fill="#292A2E"/>
</g>
<path d="M199.481 175.527H180.886V180.878H199.481V175.527Z" fill="#0CBC8B"/>
<path opacity="0.48" d="M154.179 140.371C152.824 138.695 149.839 137.626 146.35 136.779C144.933 136.435 143.972 136.306 143.972 136.306C142.85 139.149 139.38 141.207 136.322 141.208H136.11C133.051 141.208 129.761 139.149 128.638 136.306C128.638 136.306 127.677 136.435 126.257 136.779C122.769 137.626 119.783 138.695 118.429 140.371C116.346 142.946 113.432 152.637 113.432 152.637L121.882 156.157C121.947 156.332 122.011 156.508 122.074 156.685C122.119 156.811 122.163 156.937 122.207 157.063C122.203 157.05 122.199 157.038 122.194 157.026C122.205 157.055 122.215 157.085 122.225 157.114C123.672 161.384 124.675 165.791 125.219 170.265C125.255 170.254 147.35 170.254 147.386 170.265C147.93 165.791 148.933 161.384 150.38 157.114C150.39 157.085 150.4 157.055 150.411 157.026C150.45 156.912 150.49 156.798 150.531 156.685C150.594 156.509 150.658 156.333 150.723 156.157L159.173 152.637C159.173 152.637 156.261 142.948 154.179 140.371Z" fill="white"/>
<path d="M154.179 140.371C152.824 138.695 149.839 137.626 146.35 136.779C144.933 136.435 143.972 136.306 143.972 136.306C142.85 139.149 139.38 141.207 136.322 141.208H136.11C133.051 141.208 129.761 139.149 128.638 136.306C128.638 136.306 127.677 136.435 126.257 136.779C122.769 137.626 119.783 138.695 118.429 140.371C116.346 142.946 113.432 152.637 113.432 152.637L121.882 156.157C121.947 156.332 122.011 156.508 122.074 156.685C122.119 156.811 122.163 156.937 122.207 157.063C122.203 157.05 122.199 157.038 122.194 157.026C122.205 157.055 122.215 157.085 122.225 157.114C123.672 161.384 124.675 165.791 125.219 170.265C125.255 170.254 147.35 170.254 147.386 170.265C147.93 165.791 148.933 161.384 150.38 157.114C150.39 157.085 150.4 157.055 150.411 157.026C150.45 156.912 150.49 156.798 150.531 156.685C150.594 156.509 150.658 156.333 150.723 156.157L159.173 152.637C159.173 152.637 156.261 142.948 154.179 140.371Z" fill="#FFC600"/>
<path opacity="0.48" d="M154.179 140.371C152.824 138.695 149.839 137.626 146.35 136.779C144.933 136.435 143.972 136.306 143.972 136.306C142.85 139.149 139.38 141.207 136.322 141.208H136.11C133.051 141.208 129.761 139.149 128.638 136.306C128.638 136.306 127.677 136.435 126.257 136.779C122.769 137.626 119.783 138.695 118.429 140.371C116.346 142.946 113.432 152.637 113.432 152.637L121.882 156.157C121.947 156.332 122.011 156.508 122.074 156.685C122.119 156.811 122.163 156.937 122.207 157.063C122.203 157.05 122.199 157.038 122.194 157.026C122.205 157.055 122.215 157.085 122.225 157.114C123.672 161.384 124.675 165.791 125.219 170.265C125.255 170.254 147.35 170.254 147.386 170.265C147.93 165.791 148.933 161.384 150.38 157.114C150.39 157.085 150.4 157.055 150.411 157.026C150.45 156.912 150.49 156.798 150.531 156.685C150.594 156.509 150.658 156.333 150.723 156.157L159.173 152.637C159.173 152.637 156.261 142.948 154.179 140.371Z" fill="white"/>
<g opacity="0.15">
<path opacity="0.15" d="M229.921 280.787H108.846C107.172 280.785 105.568 280.12 104.384 278.937C103.201 277.754 102.536 276.151 102.534 274.478V210.636C102.536 208.963 103.201 207.36 104.385 206.177C105.568 204.994 107.172 204.329 108.846 204.327H229.921C231.594 204.329 233.199 204.994 234.382 206.177C235.565 207.36 236.231 208.963 236.233 210.636V274.478C236.231 276.151 235.565 277.754 234.382 278.937C233.199 280.12 231.594 280.785 229.921 280.787ZM108.846 205.162C107.394 205.164 106.002 205.741 104.975 206.767C103.948 207.793 103.371 209.185 103.369 210.636V274.478C103.371 275.929 103.948 277.321 104.975 278.347C106.001 279.373 107.394 279.951 108.846 279.952H229.921C231.373 279.951 232.765 279.373 233.792 278.347C234.818 277.321 235.396 275.929 235.397 274.478V210.636C235.396 209.185 234.818 207.793 233.791 206.767C232.765 205.741 231.373 205.164 229.921 205.162H108.846Z" fill="#292A2E"/>
</g>
<g opacity="0.43">
<path opacity="0.43" d="M172.234 222.257C174.4 222.257 176.156 220.501 176.156 218.336C176.156 216.171 174.4 214.415 172.234 214.415C170.068 214.415 168.312 216.171 168.312 218.336C168.312 220.501 170.068 222.257 172.234 222.257Z" fill="#FFC600"/>
<path opacity="0.43" d="M184.764 222.257C186.931 222.257 188.687 220.501 188.687 218.336C188.687 216.171 186.931 214.415 184.764 214.415C182.598 214.415 180.842 216.171 180.842 218.336C180.842 220.501 182.598 222.257 184.764 222.257Z" fill="#FFC600"/>
<path opacity="0.43" d="M197.294 222.257C199.461 222.257 201.217 220.501 201.217 218.336C201.217 216.171 199.461 214.415 197.294 214.415C195.128 214.415 193.372 216.171 193.372 218.336C193.372 220.501 195.128 222.257 197.294 222.257Z" fill="#FFC600"/>
<path opacity="0.43" d="M209.825 222.257C211.991 222.257 213.747 220.501 213.747 218.336C213.747 216.171 211.991 214.415 209.825 214.415C207.658 214.415 205.902 216.171 205.902 218.336C205.902 220.501 207.658 222.257 209.825 222.257Z" fill="#FFC600"/>
<path opacity="0.43" d="M222.355 222.257C224.521 222.257 226.277 220.501 226.277 218.336C226.277 216.171 224.521 214.415 222.355 214.415C220.189 214.415 218.432 216.171 218.432 218.336C218.432 220.501 220.189 222.257 222.355 222.257Z" fill="#FFC600"/>
</g>
<g opacity="0.15">
<path opacity="0.15" d="M226.277 230.465H169.383V231.3H226.277V230.465Z" fill="#292A2E"/>
</g>
<g opacity="0.15">
<path opacity="0.15" d="M226.277 238.815H169.383V239.65H226.277V238.815Z" fill="#292A2E"/>
</g>
<g opacity="0.15">
<path opacity="0.15" d="M199.607 247.165H169.383V248H199.607V247.165Z" fill="#292A2E"/>
</g>
<g opacity="0.15">
<path opacity="0.15" d="M226.695 269.941H207.264V263.755H226.695V269.941ZM208.099 269.106H225.86V264.59H208.099V269.106Z" fill="#292A2E"/>
</g>
<path d="M199.481 264.173H180.886V269.523H199.481V264.173Z" fill="#0CBC8B"/>
<path opacity="0.48" d="M147.949 264.586C148.173 264.585 148.393 264.534 148.594 264.435C148.795 264.337 148.971 264.194 149.109 264.018C149.247 263.841 149.342 263.636 149.389 263.417C149.435 263.198 149.432 262.972 149.378 262.755C147.878 256.52 147.764 244.783 149.058 239.739L150.491 234.156L150.488 234.13C150.513 233.939 150.494 233.745 150.433 233.562C150.373 233.379 150.271 233.212 150.137 233.074C144.72 227.518 145.434 221.811 145.434 221.811H143.099C143.25 223.156 143.162 224.517 142.839 225.831C142.254 228.137 140.698 230.697 136.754 231.312C135.501 231.499 134.226 231.499 132.973 231.312C129.029 230.697 127.473 228.137 126.888 225.831C126.565 224.517 126.477 223.156 126.628 221.811H124.295C124.295 221.811 125.007 227.517 119.59 233.074C119.456 233.212 119.354 233.379 119.293 233.562C119.233 233.744 119.214 233.939 119.239 234.13L119.219 234.156L120.652 239.738C121.947 244.783 121.832 256.521 120.332 262.754C120.278 262.971 120.275 263.198 120.321 263.417C120.368 263.636 120.463 263.841 120.601 264.017C120.739 264.194 120.914 264.336 121.115 264.435C121.316 264.533 121.537 264.585 121.761 264.585L147.949 264.586Z" fill="white"/>
<path d="M147.949 264.586C148.173 264.585 148.393 264.534 148.594 264.435C148.795 264.337 148.971 264.194 149.109 264.018C149.247 263.841 149.342 263.636 149.389 263.417C149.435 263.198 149.432 262.972 149.378 262.755C147.878 256.52 147.764 244.783 149.058 239.739L150.491 234.156L150.488 234.13C150.513 233.939 150.494 233.745 150.433 233.562C150.373 233.379 150.271 233.212 150.137 233.074C144.72 227.518 145.434 221.811 145.434 221.811H143.099C143.25 223.156 143.162 224.517 142.839 225.831C142.254 228.137 140.698 230.697 136.754 231.312C135.501 231.499 134.226 231.499 132.973 231.312C129.029 230.697 127.473 228.137 126.888 225.831C126.565 224.517 126.477 223.156 126.628 221.811H124.295C124.295 221.811 125.007 227.517 119.59 233.074C119.456 233.212 119.354 233.379 119.293 233.562C119.233 233.744 119.214 233.939 119.239 234.13L119.219 234.156L120.652 239.738C121.947 244.783 121.832 256.521 120.332 262.754C120.278 262.971 120.275 263.198 120.321 263.417C120.368 263.636 120.463 263.841 120.601 264.017C120.739 264.194 120.914 264.336 121.115 264.435C121.316 264.533 121.537 264.585 121.761 264.585L147.949 264.586Z" fill="#FFC600"/>
<path opacity="0.48" d="M147.949 264.586C148.173 264.585 148.393 264.534 148.594 264.435C148.795 264.337 148.971 264.194 149.109 264.018C149.247 263.841 149.342 263.636 149.389 263.417C149.435 263.198 149.432 262.972 149.378 262.755C147.878 256.52 147.764 244.783 149.058 239.739L150.491 234.156L150.488 234.13C150.513 233.939 150.494 233.745 150.433 233.562C150.373 233.379 150.271 233.212 150.137 233.074C144.72 227.518 145.434 221.811 145.434 221.811H143.099C143.25 223.156 143.162 224.517 142.839 225.831C142.254 228.137 140.698 230.697 136.754 231.312C135.501 231.499 134.226 231.499 132.973 231.312C129.029 230.697 127.473 228.137 126.888 225.831C126.565 224.517 126.477 223.156 126.628 221.811H124.295C124.295 221.811 125.007 227.517 119.59 233.074C119.456 233.212 119.354 233.379 119.293 233.562C119.233 233.744 119.214 233.939 119.239 234.13L119.219 234.156L120.652 239.738C121.947 244.783 121.832 256.521 120.332 262.754C120.278 262.971 120.275 263.198 120.321 263.417C120.368 263.636 120.463 263.841 120.601 264.017C120.739 264.194 120.914 264.336 121.115 264.435C121.316 264.533 121.537 264.585 121.761 264.585L147.949 264.586Z" fill="white"/>
<path d="M283.194 346.53C283.194 346.53 281.308 356.299 272.156 356.845C263.003 357.391 264.988 364.678 264.988 364.678H299.963V347.211L283.194 346.53Z" fill="#FFC600"/>
<path d="M293.982 168.291C293.982 168.291 293.872 165.354 293.895 172.017C293.982 196.87 294.413 225.257 295.468 241.869C297.162 268.573 301.507 352.765 301.507 352.765L278.524 352.572L256.249 167.282L293.982 168.291Z" fill="#262626"/>
<path d="M268.028 197.597C268.028 197.597 267.075 215.632 266.9 219.866C266.492 229.658 266.35 239.797 266.35 251.292L262.727 221.157C262.727 221.157 265.377 211.715 268.028 197.597Z" fill="#0A0A0A"/>
<path d="M242.278 346.53C242.278 346.53 240.392 356.299 231.24 356.845C222.087 357.391 224.072 364.678 224.072 364.678H259.048V347.211L242.278 346.53Z" fill="#FFC600"/>
<path d="M231.15 170.221C231.15 170.221 229.114 255.161 229.413 259.313L237.96 352.121L260.563 352.538L258.36 255.955C258.36 255.955 259.914 229.313 266.354 204.574C269.649 191.876 271.632 178.875 272.272 165.773L231.15 170.221Z" fill="#262626"/>
<path d="M294.232 168.289L294.307 168.294C294.307 168.294 294.253 166.844 294.232 168.289Z" fill="#333333"/>
<path d="M227.915 123.075C228.389 128.641 230.694 163.367 231.15 170.223H293.958C294.313 164.039 295.906 137.001 297.251 124.909C298.536 113.371 301.056 107.594 299.209 104.183C296.191 98.6077 287.943 95.3859 282.32 94.6249C278.886 94.1602 273.721 93.8271 273.721 93.8271C273.721 93.8271 273.283 102.668 262.854 103.161C248.66 103.829 249.607 93.8266 249.537 93.8266C247.238 93.8266 233.847 94.9075 230.887 97.1857C225.71 101.169 226.909 111.278 227.915 123.075Z" fill="#FFC600"/>
<path d="M227.047 116.099C226.994 116.099 226.942 116.079 226.903 116.042C226.864 116.006 226.841 115.956 226.838 115.903L226.331 107.064C226.328 107.009 226.347 106.954 226.384 106.913C226.421 106.872 226.472 106.847 226.528 106.844C226.583 106.841 226.637 106.86 226.678 106.897C226.719 106.933 226.744 106.985 226.748 107.04L227.255 115.878C227.258 115.934 227.239 115.988 227.202 116.029C227.166 116.071 227.114 116.096 227.059 116.099L227.047 116.099Z" fill="#0C0C0C"/>
<path d="M307.535 169.857C309.382 169.857 311.202 169.411 312.84 168.556C314.477 167.702 315.884 166.464 316.94 164.95C317.997 163.435 318.671 161.687 318.907 159.856C319.142 158.024 318.931 156.163 318.292 154.431C317.643 152.672 302.431 112.408 299.536 104.948L278.093 113.631C279.722 117.826 285.62 133.726 290.36 146.534L282.486 145.679L280.008 168.468L306.294 169.79C306.706 169.835 307.12 169.857 307.535 169.857Z" fill="#FFC600"/>
<path d="M242.055 93.0631C242.125 93.0539 244.052 100.301 259.087 99.173C269.495 98.3936 272.034 91.3117 272.272 91.3117C271.149 91.0733 269.327 90.8258 268.828 90.5602C267.189 89.6802 265.996 88.6085 265.395 86.3089C264.925 84.5104 264.685 77.5872 264.685 74.1137L248.668 77.7112C248.892 81.6293 250.454 90.713 244.978 92.3208C244.067 92.5863 243.086 92.8309 242.055 93.0631Z" fill="#E98862"/>
<path d="M249.223 85.4143C255.537 85.9119 263.648 83.2475 265.189 74.8272L266.579 67.2289C268.12 58.8086 264.944 51.1736 257.012 49.7236C249.08 48.2737 241.903 54.0158 240.362 62.4362L239.747 65.7998C239.156 69.0312 237.957 84.5258 249.223 85.4143Z" fill="#E98862"/>
<path d="M243.368 77.6832C244.501 71.9908 245.021 68.1933 244.961 64.1867C243.365 61.3895 243.784 58.1748 244.147 56.7871C243.048 57.4852 241.756 57.8166 240.456 57.7336C240.456 57.7336 243.096 47.1427 252.069 44.293C253.719 43.6509 257.932 42.8401 263.526 43.607C268.284 44.2591 280.012 47.8153 281.688 61.0129V61.0204C281.743 61.458 282.869 73.6181 285.113 79.4525C288.131 87.2959 292.368 89.7328 292.26 98.7822C292.122 110.422 270.713 111.972 257.802 111.101C244.891 110.23 237.681 105.986 237.587 97.5974C237.484 88.1985 241.1 89.0715 243.368 77.6832Z" fill="#0A0A0A"/>
<path d="M295.298 125.142L293.755 170.216L294.172 170.23L295.715 125.156L295.298 125.142Z" fill="#0C0C0C"/>
<path d="M159.05 73.6194L165.799 81.5876L165.382 80.2194C165.256 79.7752 165.303 79.2997 165.514 78.8889C165.725 78.4782 166.085 78.1629 166.519 78.0068C166.747 77.934 166.986 77.9082 167.224 77.9311C167.462 77.954 167.692 78.025 167.901 78.1398C168.11 78.2546 168.294 78.4109 168.441 78.5989C168.587 78.787 168.694 79.003 168.755 79.2338L171.84 90.8474C172.23 92.3135 172.031 93.8737 171.286 95.1952C170.541 96.5167 169.308 97.4949 167.852 97.9209C166.161 98.4158 164.361 98.3946 162.682 97.8601C161.003 97.3256 159.522 96.3021 158.429 94.9209L153.489 88.6548C153.226 88.3342 153.082 87.9326 153.081 87.5181C153.08 87.1035 153.223 86.7015 153.485 86.3799C153.727 86.0942 154.054 85.8935 154.419 85.8072C154.783 85.7209 155.166 85.7535 155.51 85.9002C155.516 85.8803 155.525 85.8616 155.538 85.8453C155.55 85.8291 155.566 85.8155 155.584 85.8056C155.602 85.7956 155.622 85.7894 155.643 85.7874C155.663 85.7854 155.684 85.7875 155.703 85.7937L154.788 84.6373C154.508 84.2983 154.36 83.8693 154.371 83.4296C154.383 82.99 154.553 82.5692 154.85 82.2451C155.154 81.9336 155.564 81.7465 155.999 81.7201C156.434 81.6937 156.863 81.8299 157.202 82.1023C157.205 82.0837 157.211 82.0658 157.22 82.0493L156.844 81.575C156.599 81.2502 156.464 80.8551 156.461 80.4482C156.458 80.0413 156.586 79.6442 156.826 79.3156C157.12 78.9618 157.54 78.7369 157.997 78.6892C158.454 78.6414 158.912 78.7746 159.272 79.0601L159.297 79.0363L156.461 75.6885C156.315 75.5168 156.206 75.3173 156.14 75.1021C156.075 74.887 156.053 74.6607 156.078 74.437C156.103 74.2134 156.173 73.9971 156.284 73.8014C156.395 73.6057 156.544 73.4347 156.724 73.2988C157.08 73.0478 157.518 72.9413 157.95 73.0008C158.382 73.0603 158.775 73.2814 159.05 73.6194Z" fill="#E98862"/>
<path opacity="0.2" d="M159.203 79.2463C159.21 79.2643 159.22 79.2808 159.233 79.2951L162.025 82.5152C162.055 82.5419 162.094 82.5568 162.135 82.557C162.175 82.5572 162.214 82.5428 162.245 82.5164C162.275 82.49 162.295 82.4535 162.301 82.4135C162.307 82.3735 162.298 82.3328 162.276 82.299L159.483 79.0793C159.458 79.0501 159.423 79.0308 159.384 79.0247C159.346 79.0187 159.307 79.0263 159.274 79.0462C159.241 79.0661 159.215 79.0971 159.203 79.1336C159.19 79.1702 159.191 79.2101 159.204 79.2463H159.203Z" fill="#0C0C0C"/>
<path opacity="0.2" d="M157.206 82.1775C157.213 82.195 157.223 82.2112 157.235 82.2255L159.41 84.7722C159.44 84.7977 159.479 84.8116 159.518 84.8115C159.558 84.8113 159.596 84.7971 159.626 84.7714C159.656 84.7457 159.676 84.7101 159.683 84.671C159.689 84.6319 159.681 84.5919 159.66 84.558L157.485 82.0113C157.459 81.9839 157.424 81.9661 157.387 81.961C157.349 81.9558 157.311 81.9636 157.279 81.983C157.246 82.0025 157.221 82.0324 157.208 82.0679C157.194 82.1033 157.194 82.1423 157.205 82.1783L157.206 82.1775Z" fill="#0C0C0C"/>
<path opacity="0.2" d="M155.509 86.0092C155.516 86.0281 155.526 86.0454 155.54 86.0601L156.595 87.2395C156.608 87.2598 156.626 87.2769 156.646 87.2898C156.666 87.3027 156.689 87.3111 156.713 87.3143C156.737 87.3175 156.761 87.3155 156.785 87.3084C156.808 87.3013 156.829 87.2893 156.847 87.2732C156.865 87.2571 156.879 87.2374 156.889 87.2152C156.898 87.1931 156.903 87.1692 156.902 87.1451C156.902 87.121 156.896 87.0972 156.886 87.0756C156.875 87.0539 156.86 87.0348 156.841 87.0195L155.786 85.8401C155.759 85.8138 155.725 85.7971 155.687 85.7928C155.65 85.7884 155.613 85.7966 155.581 85.8161C155.549 85.8356 155.525 85.8652 155.512 85.9002C155.498 85.9352 155.497 85.9736 155.509 86.0092Z" fill="#0C0C0C"/>
<path d="M192.366 148.647C190.242 148.647 188.153 148.097 186.303 147.052C184.454 146.007 182.906 144.502 181.81 142.682L154.499 97.331L175.612 84.6277L196.374 119.104L230.887 97.1862L245.508 116.782L199.035 146.686C197.046 147.966 194.731 148.646 192.366 148.647Z" fill="#FFC600"/>
<path d="M228.264 128.076C228.218 128.076 228.172 128.061 228.136 128.032C228.099 128.003 228.073 127.962 228.062 127.917C228.051 127.872 228.055 127.824 228.075 127.781C228.094 127.739 228.127 127.704 228.169 127.682L234.132 124.607C234.182 124.581 234.239 124.577 234.292 124.593C234.345 124.61 234.388 124.647 234.414 124.697C234.439 124.746 234.444 124.803 234.427 124.856C234.41 124.909 234.373 124.953 234.324 124.978L228.361 128.054C228.331 128.069 228.298 128.077 228.264 128.076Z" fill="#0C0C0C"/>
<path d="M133.316 364.18H118.526L112.54 303.596H127.33L133.316 364.18Z" fill="#FFC600"/>
<path opacity="0.21" d="M133.316 364.18H118.526L112.54 303.596H127.33L133.316 364.18Z" fill="#0A0A0A"/>
<path d="M118.526 364.18H60.9619L66.948 303.596H112.54L118.526 364.18Z" fill="#FFC600"/>
<path d="M89.7446 328.385C88.059 328.385 86.39 328.054 84.8327 327.409C83.2755 326.764 81.8605 325.819 80.6687 324.628C79.4768 323.436 78.5314 322.022 77.8864 320.465C77.2414 318.909 76.9095 317.24 76.9095 315.556V310.068C76.9072 309.975 76.9237 309.881 76.958 309.794C76.9923 309.707 77.0437 309.627 77.1092 309.56C77.1747 309.493 77.2529 309.44 77.3393 309.404C77.4257 309.367 77.5185 309.348 77.6122 309.348C77.706 309.348 77.7988 309.367 77.8852 309.404C77.9716 309.44 78.0498 309.493 78.1153 309.56C78.1808 309.627 78.2322 309.707 78.2665 309.794C78.3008 309.881 78.3173 309.975 78.315 310.068V315.555C78.315 318.585 79.5192 321.491 81.6626 323.633C83.8061 325.776 86.7133 326.979 89.7446 326.979C92.7759 326.979 95.6831 325.776 97.8265 323.633C99.97 321.491 101.174 318.585 101.174 315.555V310.068C101.174 309.882 101.248 309.703 101.38 309.571C101.512 309.44 101.691 309.366 101.877 309.366C102.064 309.366 102.242 309.44 102.374 309.571C102.506 309.703 102.58 309.882 102.58 310.068V315.555C102.576 318.956 101.223 322.218 98.8167 324.623C96.4104 327.029 93.1477 328.382 89.7446 328.385Z" fill="white"/>
<path opacity="0.08" d="M112.54 303.596L120.705 311.557L127.33 303.596H112.54Z" fill="#0A0A0A"/>
<path opacity="0.08" d="M118.526 364.18L125.131 356.219L133.316 364.18H118.526Z" fill="#0A0A0A"/>
<path d="M314.191 365H0.322875C0.279527 365.002 0.236309 364.994 0.195802 364.979C0.155294 364.963 0.118328 364.94 0.0871097 364.91C0.0558915 364.88 0.0310617 364.844 0.0141027 364.804C-0.00285626 364.764 -0.0115967 364.721 -0.0115967 364.678C-0.0115967 364.634 -0.00285626 364.591 0.0141027 364.551C0.0310617 364.511 0.0558915 364.475 0.0871097 364.445C0.118328 364.415 0.155294 364.392 0.195802 364.376C0.236309 364.361 0.279527 364.353 0.322875 364.355H314.191C314.234 364.353 314.277 364.361 314.318 364.376C314.358 364.392 314.395 364.415 314.427 364.445C314.458 364.475 314.483 364.511 314.5 364.551C314.517 364.591 314.525 364.634 314.525 364.678C314.525 364.721 314.517 364.764 314.5 364.804C314.483 364.844 314.458 364.88 314.427 364.91C314.395 364.94 314.358 364.963 314.318 364.979C314.277 364.994 314.234 365.002 314.191 365Z" fill="#3F3F3F"/>
</g>
<defs>
<clipPath id="clip0_4_437">
<rect width="319" height="365" fill="white"/>
</clipPath>
</defs>
</svg>
