<svg width="24" height="24" viewBox="0 0 24 24" fill="none" xmlns="http://www.w3.org/2000/svg">
<path d="M3 6V5C2.44772 5 2 5.44772 2 6H3ZM14.4545 6H15.4545C15.4545 5.44772 15.0068 5 14.4545 5V6ZM14.4545 8.4375V7.4375C14.1893 7.4375 13.935 7.54286 13.7474 7.73039C13.5599 7.91793 13.4545 8.17228 13.4545 8.4375H14.4545ZM18.8844 16.226L19.589 15.5164L18.8844 16.226ZM18.8844 18.524L19.589 19.2336L18.8844 18.524ZM3 7H14.4545V5H3V7ZM13.4545 6V17.375H15.4545V6H13.4545ZM4 15.375V6H2V15.375H4ZM14.4545 9.4375H17V7.4375H14.4545V9.4375ZM20 12.4375V15.7386H22V12.4375H20ZM15.4545 17.375L15.4545 8.4375H13.4545L13.4545 17.375H15.4545ZM18.1797 17.8145C17.9306 18.0618 17.5239 18.0618 17.2748 17.8145L15.8656 19.2336C16.8945 20.2555 18.56 20.2555 19.589 19.2336L18.1797 17.8145ZM17.2748 16.9355C17.5239 16.6882 17.9306 16.6882 18.1797 16.9355L19.589 15.5164C18.56 14.4945 16.8945 14.4945 15.8656 15.5164L17.2748 16.9355ZM7.54335 17.8145C7.29427 18.0618 6.88755 18.0618 6.63846 17.8145L5.22919 19.2336C6.25818 20.2555 7.92364 20.2555 8.95263 19.2336L7.54335 17.8145ZM6.63846 16.9355C6.88755 16.6882 7.29427 16.6882 7.54335 16.9355L8.95263 15.5164C7.92364 14.4945 6.25818 14.4945 5.22919 15.5164L6.63846 16.9355ZM18.1797 16.9355C18.3033 17.0583 18.3636 17.2157 18.3636 17.375H20.3636C20.3636 16.7025 20.1044 16.0282 19.589 15.5164L18.1797 16.9355ZM18.3636 17.375C18.3636 17.5343 18.3033 17.6917 18.1797 17.8145L19.589 19.2336C20.1044 18.7218 20.3636 18.0475 20.3636 17.375H18.3636ZM16.0909 16.375H14.4545V18.375H16.0909V16.375ZM17.2748 17.8145C17.1512 17.6917 17.0909 17.5343 17.0909 17.375H15.0909C15.0909 18.0475 15.3501 18.7218 15.8656 19.2336L17.2748 17.8145ZM17.0909 17.375C17.0909 17.2157 17.1512 17.0583 17.2748 16.9355L15.8656 15.5164C15.3501 16.0282 15.0909 16.7025 15.0909 17.375H17.0909ZM6.63846 17.8145C6.51486 17.6917 6.45455 17.5343 6.45455 17.375H4.45455C4.45455 18.0475 4.71375 18.7218 5.22919 19.2336L6.63846 17.8145ZM6.45455 17.375C6.45455 17.2157 6.51486 17.0583 6.63846 16.9355L5.22919 15.5164C4.71375 16.0282 4.45455 16.7025 4.45455 17.375H6.45455ZM5.45455 16.375H5V18.375H5.45455V16.375ZM14.4545 16.375H8.72727V18.375H14.4545V16.375ZM7.54335 16.9355C7.66696 17.0583 7.72727 17.2157 7.72727 17.375H9.72727C9.72727 16.7025 9.46806 16.0282 8.95263 15.5164L7.54335 16.9355ZM7.72727 17.375C7.72727 17.5343 7.66696 17.6917 7.54335 17.8145L8.95263 19.2336C9.46806 18.7218 9.72727 18.0475 9.72727 17.375H7.72727ZM20 15.7386C20 16.0901 19.7151 16.375 19.3636 16.375V18.375C20.8197 18.375 22 17.1947 22 15.7386H20ZM17 9.4375C18.6569 9.4375 20 10.7806 20 12.4375H22C22 9.67608 19.7614 7.4375 17 7.4375V9.4375ZM2 15.375C2 17.0319 3.34315 18.375 5 18.375V16.375C4.44772 16.375 4 15.9273 4 15.375H2Z" fill="#14181F"/>
</svg>
